<?xml version="1.0" encoding="UTF-8" standalone="no"?>
<svg
   fill="none"
   viewBox="0 0 42 42"
   class="logo"
   version="1.1"
   id="svg1"
   sodipodi:docname="g1-logo-primary.svg"
   inkscape:version="1.3 (0e150ed6c4, 2023-07-21)"
   xmlns:inkscape="http://www.inkscape.org/namespaces/inkscape"
   xmlns:sodipodi="http://sodipodi.sourceforge.net/DTD/sodipodi-0.dtd"
   xmlns="http://www.w3.org/2000/svg"
   xmlns:svg="http://www.w3.org/2000/svg">
  <defs
     id="defs1" />
  <sodipodi:namedview
     id="namedview1"
     pagecolor="#505050"
     bordercolor="#eeeeee"
     borderopacity="1"
     inkscape:showpageshadow="0"
     inkscape:pageopacity="0"
     inkscape:pagecheckerboard="0"
     inkscape:deskcolor="#505050"
     showgrid="false"
     inkscape:zoom="27.928571"
     inkscape:cx="21.017903"
     inkscape:cy="21"
     inkscape:window-width="3440"
     inkscape:window-height="1369"
     inkscape:window-x="-8"
     inkscape:window-y="-8"
     inkscape:window-maximized="1"
     inkscape:current-layer="svg1" />
  <rect
     style="fill:#c4170c;fill-opacity:1;stroke:none;stroke-width:2.68375"
     id="rect1"
     width="42.035805"
     height="42"
     x="8.4452616e-08"
     y="5.8537555e-08"
     ry="3.7953963" />
  <path
     d="M 26.383709,11.524651 31.054446,8.7455833 C 31.56539,8.4936349 32.158555,8.869502 32.158555,9.5548722 V 26.467718 c 0,0.317138 -0.343566,0.665403 -0.767591,0.665403 H 29.244411 A 0.77228952,0.77228952 0 0 1 28.477406,26.356133 V 14.159245 l -1.435342,0.856272 c -0.50977,0.250186 -1.089428,-0.139189 -1.089428,-0.712386 v -2.080189 c 0,-0.297758 0.167379,-0.5685 0.431073,-0.698878 z m -9.430154,12.312585 c -1.90635,0 -3.510246,-1.531071 -3.510246,-3.767481 0,-2.266949 1.603308,-3.768068 3.510246,-3.768068 1.906352,0 3.479708,1.500532 3.479708,3.768068 0,2.23641 -1.573944,3.767481 -3.479708,3.767481 z m 4.327171,-10.84318 c -0.453977,0 -0.725894,0.275441 -0.725894,0.734703 v 0.796369 c -0.817511,-1.011318 -2.330376,-1.777147 -3.843828,-1.777147 -3.69172,5.87e-4 -6.8695593,3.186061 -6.8695593,7.351726 0,4.166253 2.9951913,7.045746 6.7785283,7.045746 a 5.091825,5.091825 0 0 0 3.752211,-1.623275 c -0.02937,2.909446 -1.542817,4.22733 -4.145697,4.22733 -1.391882,0 -2.693322,-0.42931 -4.2056,-1.409502 -0.393486,-0.275439 -0.847463,-0.183822 -1.059476,0.245488 l -0.908541,1.807099 c -0.2114253,0.428724 -0.1509343,0.826908 0.272504,1.102348 1.876986,1.225092 4.08638,1.838225 5.992731,1.838225 4.99316,0 7.746387,-2.726798 7.746387,-9.006128 V 13.729347 c 0,-0.459263 -0.271917,-0.734703 -0.725894,-0.734703 h -2.057872 z"
     fill="#ffffff"
     id="path1"
     style="stroke-width:0.587293" />
</svg>
