<svg width="33" height="20" viewBox="0 0 33 20" fill="none" xmlns="http://www.w3.org/2000/svg">
<g clip-path="url(#clip0_4_90)">
<path fill-rule="evenodd" clip-rule="evenodd" d="M0 13.3481C0 16.8556 3.22025 19.6977 7.19848 19.6977H21.5663V7.5751H13.5692V13.6134H9.77101C8.77717 13.6134 7.97027 12.9019 7.97027 12.0256V6.13762C7.97027 5.26273 8.45823 4.54991 9.45143 4.54991H15.8766L19.4754 0.0300581H7.19848C3.22025 0.0300581 0 3.16455 0 6.67291V13.3481ZM24.7619 19.6977H32.7442V1.58809C32.7442 0.711802 31.9389 0 30.945 0H23.0756L19.4755 4.5375H22.9624C23.9561 4.5375 24.7618 5.24885 24.7618 6.12463L24.7619 19.6977Z" fill="white"/>
</g>
<defs>
<clipPath id="clip0_4_90">
<rect width="33" height="19.6977" fill="white"/>
</clipPath>
</defs>
</svg>
